<svg width="64" height="64" viewBox="0 0 64 64" fill="none" xmlns="http://www.w3.org/2000/svg">
  <rect width="64" height="64" rx="12" fill="#050505"/>
  <circle cx="32" cy="32" r="22" fill="#1ED760"/>
  <path d="M24 43.5C27.5899 43.5 30.5 41.2614 30.5 38.5C30.5 35.7386 27.5899 33.5 24 33.5C20.4101 33.5 17.5 35.7386 17.5 38.5C17.5 41.2614 20.4101 43.5 24 43.5Z" fill="#050505"/>
  <path d="M30.5 38.5V20.5L45.5 17.5V35.5" stroke="#050505" stroke-width="5" stroke-linecap="round" stroke-linejoin="round"/>
  <path d="M39 40.5C42.5899 40.5 45.5 38.2614 45.5 35.5C45.5 32.7386 42.5899 30.5 39 30.5C35.4101 30.5 32.5 32.7386 32.5 35.5C32.5 38.2614 35.4101 40.5 39 40.5Z" fill="#050505"/>
</svg>
